<?xml version="1.0" encoding="utf-8"?>
<!-- Generator: Adobe Illustrator 26.1.0, SVG Export Plug-In . SVG Version: 6.00 Build 0)  -->
<svg version="1.1" id="Layer_1" xmlns="http://www.w3.org/2000/svg" xmlns:xlink="http://www.w3.org/1999/xlink" x="0px" y="0px"
	 viewBox="0 0 56.3 63.9" style="enable-background:new 0 0 56.3 63.9;" xml:space="preserve">
<style type="text/css">
	.st0{fill:#EC2027;}
</style>
<path id="spray-can-solid" class="st0" d="M21.1,0c1.9,0,3.5,1.6,3.5,3.5c0,0,0,0,0,0v10.5H10.5V3.5c0-1.9,1.6-3.5,3.5-3.5
	c0,0,0,0,0,0H21.1z M0,28.1c0-5.8,4.6-10.5,10.4-10.5c0,0,0.1,0,0.1,0h14.1c5.8,0,10.5,4.6,10.5,10.4c0,0,0,0.1,0,0.1V51
	c0,2.9-2.4,5.3-5.3,5.3H5.3C2.4,56.3,0,53.9,0,51V28.1z M17.6,28.1c-4.9,0-8.8,3.9-8.8,8.8s3.9,8.8,8.8,8.8s8.8-3.9,8.8-8.8l0,0
	C26.4,32.1,22.4,28.1,17.6,28.1C17.6,28.1,17.6,28.1,17.6,28.1z M35.2,7c0,1.9-1.6,3.5-3.5,3.5c-1.9,0-3.5-1.6-3.5-3.5
	s1.6-3.5,3.5-3.5C33.6,3.5,35.2,5.1,35.2,7C35.2,7,35.2,7,35.2,7L35.2,7z M38.7,7c0-1.9,1.6-3.5,3.5-3.5s3.5,1.6,3.5,3.5
	s-1.6,3.5-3.5,3.5l0,0C40.3,10.5,38.7,9,38.7,7L38.7,7z M56.3,7c0,1.9-1.6,3.5-3.5,3.5c-1.9,0-3.5-1.6-3.5-3.5
	c0-1.9,1.6-3.5,3.5-3.5c0,0,0,0,0,0C54.7,3.5,56.3,5.1,56.3,7C56.3,7,56.3,7,56.3,7L56.3,7z M49.2,17.6c0-1.9,1.6-3.5,3.5-3.5
	c1.9,0,3.5,1.6,3.5,3.5c0,1.9-1.6,3.5-3.5,3.5C50.8,21.1,49.2,19.5,49.2,17.6C49.2,17.6,49.2,17.6,49.2,17.6z M56.3,28.1
	c0,1.9-1.6,3.5-3.5,3.5c-1.9,0-3.5-1.6-3.5-3.5s1.6-3.5,3.5-3.5l0,0C54.7,24.6,56.3,26.2,56.3,28.1C56.3,28.1,56.3,28.1,56.3,28.1z
	 M38.7,17.6c0-1.9,1.6-3.5,3.5-3.5c1.9,0,3.5,1.6,3.5,3.5c0,1.9-1.6,3.5-3.5,3.5C40.3,21.1,38.7,19.5,38.7,17.6
	C38.7,17.6,38.7,17.6,38.7,17.6z"/>
</svg>
