<?xml version="1.0" encoding="utf-8"?>
<!-- Generator: Adobe Illustrator 26.2.1, SVG Export Plug-In . SVG Version: 6.00 Build 0)  -->
<svg version="1.1" id="Layer_1" xmlns="http://www.w3.org/2000/svg" xmlns:xlink="http://www.w3.org/1999/xlink" x="0px" y="0px"
	 viewBox="0 0 315.1 154.7" style="enable-background:new 0 0 315.1 154.7;" xml:space="preserve">
<style type="text/css">
	.st0{fill:#EB2329;}
</style>
<path class="st0" d="M310.6,16.2c-4.6-12.1-12.7-23.4-24.7-10.5c-20.9,22.5-44.3,23.5-44.3,23.5h-83.8H74c0,0-23.4-1-44.3-23.5
	C17.7-7.2,9.7,4.2,5,16.2c-3.4,8.9-5,18.4-5,27.9v28.8c0,16.6,4.2,33,12.6,47.4c10,17.2,27.5,34.4,57.3,34.4c59.7,0,87.9,0,87.9,0
	s28.2,0,87.9,0c30.8,0,48.4-18.3,58.2-36c7.8-14,11.7-29.8,11.7-45.8V44.1C315.6,34.6,314,25.1,310.6,16.2z M46.6,87
	c-10.1,0-18.2-8.9-18.2-19.8v0c0-8.2,6.1-14.9,13.7-14.9h23.1c11.6,0,21,10.2,21,22.8v3.8c0,4.5-3.3,8.1-7.4,8.1H46.6z M88,127.7
	h-6.6c-4.9,0-8.9-4.3-8.9-9.6s4-9.6,8.9-9.6H88c4.9,0,8.9,4.3,8.9,9.6S92.9,127.7,88,127.7z M188,112c0,4.3-3.2,7.7-7.1,7.7h-46.3
	c-3.9,0-7.1-3.4-7.1-7.7v0c0-4.3,3.2-7.7,7.1-7.7h46.3C184.9,104.3,188,107.8,188,112L188,112z M197.9,96.2h-80.2
	c-4.7,0-8.4-4.1-8.4-9.2c0-5.1,3.8-9.2,8.4-9.2h80.2c4.7,0,8.4,4.1,8.4,9.2C206.3,92.1,202.5,96.2,197.9,96.2z M234.2,127.7h-6.6
	c-4.9,0-8.9-4.3-8.9-9.6s4-9.6,8.9-9.6h6.6c4.9,0,8.9,4.3,8.9,9.6S239.1,127.7,234.2,127.7z M287.2,67.2c0,10.9-8.2,19.8-18.2,19.8
	h-32.1c-4.1,0-7.4-3.6-7.4-8.1v-3.8c0-12.6,9.4-22.8,21-22.8h23.1C281.1,52.3,287.2,59,287.2,67.2L287.2,67.2z"/>
<g>
</g>
<g>
</g>
<g>
</g>
<g>
</g>
<g>
</g>
<g>
</g>
</svg>
