<?xml version="1.0" encoding="utf-8"?>
<!-- Generator: Adobe Illustrator 26.1.0, SVG Export Plug-In . SVG Version: 6.00 Build 0)  -->
<svg version="1.1" id="Layer_1" xmlns="http://www.w3.org/2000/svg" xmlns:xlink="http://www.w3.org/1999/xlink" x="0px" y="0px"
	 viewBox="0 0 51 52.6" style="enable-background:new 0 0 51 52.6;" xml:space="preserve">
<style type="text/css">
	.st0{clip-path:url(#SVGID_00000173861060308758008720000015093501248526408615_);}
	.st1{fill:#EC2027;}
</style>
<g id="Group_13" transform="translate(906.423 426.903) rotate(180)">
	<g>
		<defs>
			<rect id="SVGID_1_" x="855.5" y="375.9" width="51" height="51"/>
		</defs>
		<clipPath id="SVGID_00000092440056666198650620000016025040239325453459_">
			<use xlink:href="#SVGID_1_"  style="overflow:visible;"/>
		</clipPath>
		<g id="Group_12" style="clip-path:url(#SVGID_00000092440056666198650620000016025040239325453459_);">
			<path id="Path_23" class="st1" d="M880.9,407.8c-0.6,0-1.1-0.1-1.7-0.2l-3.5,5.4c3.3,1.5,7,1.5,10.3,0l-3.5-5.4
				C882.1,407.7,881.5,407.8,880.9,407.8"/>
			<path id="Path_24" class="st1" d="M879,395.4V389c-4.4,0.7-8.2,3.7-9.8,7.8l6.2,1.4C876.3,396.9,877.5,395.9,879,395.4"/>
			<path id="Path_25" class="st1" d="M874.6,402l-6.2-1.4c0,0.3,0,0.6,0,0.9c0,3.3,1.3,6.5,3.7,8.9c0.2,0.2,0.3,0.3,0.5,0.5l3.5-5.4
				C875.2,404.4,874.7,403.2,874.6,402"/>
			<path id="Path_26" class="st1" d="M877.7,401.4c0,1.8,1.5,3.2,3.2,3.2s3.2-1.5,3.2-3.2s-1.5-3.2-3.2-3.2l0,0
				C879.1,398.2,877.7,399.6,877.7,401.4"/>
			<path id="Path_27" class="st1" d="M882.9,389v6.4c1.5,0.5,2.8,1.5,3.6,2.9l6.2-1.4C891,392.7,887.3,389.7,882.9,389"/>
			<path id="Path_28" class="st1" d="M885.8,405.4l3.5,5.4c0.2-0.2,0.3-0.3,0.5-0.5c2.4-2.4,3.7-5.6,3.7-8.9c0-0.3,0-0.6,0-0.9
				l-6.2,1.4C887.1,403.2,886.6,404.5,885.8,405.4"/>
			<path id="Path_29" class="st1" d="M880.9,375.9c-14.1,0-25.5,11.4-25.5,25.5s11.4,25.5,25.5,25.5c14.1,0,25.5-11.4,25.5-25.5
				S895,375.9,880.9,375.9C880.9,375.9,880.9,375.9,880.9,375.9 M880.9,417.8c-9.1,0-16.4-7.3-16.4-16.4s7.3-16.4,16.4-16.4
				c9.1,0,16.4,7.3,16.4,16.4S890,417.8,880.9,417.8"/>
		</g>
	</g>
</g>
</svg>
