<?xml version="1.0" encoding="UTF-8"?><svg xmlns="http://www.w3.org/2000/svg" viewBox="0 0 69.87 69.86"><defs><style>.h{fill:#ec2027;}.i{fill:none;}</style></defs><g id="a"/><g id="b"><g id="c"><g id="d"><path id="e" class="h" d="M66.55,21.54h-3.98c-1.83,0-3.31,1.48-3.31,3.31h0v21.18c0,1.83,1.48,3.31,3.31,3.31h3.98c1.83,0,3.31-1.48,3.31-3.31h0V24.85c0-1.83-1.48-3.31-3.31-3.31h0"/><path id="f" class="h" d="M54.4,23.54l-5.91-5.91c-.86-.86-2.02-1.34-3.23-1.34h-9.63v-3.6h5.22c1.46,.03,2.67-1.13,2.69-2.59,.03-1.46-1.13-2.67-2.59-2.69-.03,0-.07,0-.1,0h-15.86c-1.46,.03-2.62,1.23-2.59,2.69,.03,1.42,1.17,2.56,2.59,2.59h5.53v3.6H14.66c-2.52,0-4.57,2.04-4.57,4.57h0v5.19H5.29v-5.08c.03-1.46-1.13-2.67-2.59-2.69C1.24,18.25,.03,19.41,0,20.87c0,.03,0,.07,0,.1v15.41c-.03,1.46,1.13,2.67,2.59,2.69,1.46,.03,2.67-1.13,2.69-2.59,0-.03,0-.07,0-.1v-5.22h4.81v6.66c0,2.52,2.04,4.57,4.57,4.57h0c1.15,0,2.26,.43,3.1,1.21l4.9,4.53c.84,.78,1.95,1.21,3.1,1.21h25.41c2.52,0,4.57-2.04,4.57-4.57h0V26.77c0-1.21-.48-2.37-1.33-3.23m-33.37,8.78c-2.18,0-3.95-1.77-3.95-3.95s1.77-3.95,3.95-3.95,3.95,1.77,3.95,3.95-1.77,3.95-3.95,3.95m11.65,0c-2.18,0-3.95-1.77-3.95-3.95s1.77-3.95,3.95-3.95,3.95,1.77,3.95,3.95h0c0,2.18-1.77,3.95-3.95,3.95m11.65,0c-2.18,0-3.95-1.77-3.95-3.96,0-2.18,1.77-3.95,3.96-3.95,2.18,0,3.95,1.77,3.95,3.95,0,2.18-1.77,3.95-3.95,3.95"/></g><rect id="g" class="i" x="0" width="69.86" height="69.86"/></g></g></svg>