<?xml version="1.0" encoding="UTF-8"?><svg xmlns="http://www.w3.org/2000/svg" viewBox="0 0 52.59 52.65"><defs><style>.e{fill:#ec2027;}</style></defs><g id="a"/><g id="b"><g id="c"><path id="d" class="e" d="M3.23,6.58C3.23,2.95,6.18,0,9.81,0H26.27c3.63,0,6.58,2.95,6.58,6.58V26.33h.82c5,0,9.05,4.05,9.05,9.05v3.29c0,1.36,1.1,2.47,2.47,2.47s2.47-1.1,2.47-2.47h0v-15.93c-2.91-.68-4.96-3.29-4.94-6.28v-6.58l-3.29-3.29c-.91-.91-.91-2.38,0-3.29,.91-.91,2.38-.91,3.29,0h0l7.95,7.95c1.23,1.23,1.93,2.9,1.92,4.65v22.78c0,4.09-3.31,7.4-7.4,7.4s-7.4-3.31-7.4-7.4v-3.29c0-2.29-1.82-4.16-4.11-4.21h-.82v14.9c1.82,.03,3.26,1.53,3.23,3.35-.03,1.77-1.46,3.2-3.23,3.23H3.23C1.42,52.62-.03,51.12,0,49.3c.03-1.77,1.46-3.2,3.23-3.23V6.58Zm6.58,11.52c0,.91,.74,1.64,1.65,1.65h13.16c.91,0,1.64-.74,1.65-1.65V8.23c0-.91-.74-1.64-1.65-1.64H11.46c-.91,0-1.64,.74-1.65,1.64v9.87Z"/></g></g></svg>