<?xml version="1.0" encoding="utf-8"?>
<!-- Generator: Adobe Illustrator 26.1.0, SVG Export Plug-In . SVG Version: 6.00 Build 0)  -->
<svg version="1.1" id="Layer_1" xmlns="http://www.w3.org/2000/svg" xmlns:xlink="http://www.w3.org/1999/xlink" x="0px" y="0px"
	 viewBox="0 0 24 24" style="enable-background:new 0 0 24 24;" xml:space="preserve">
<style type="text/css">
	.st0{fill:#EC2027;}
</style>
<path class="st0" d="M24,12c0,6.6-5.4,12-12,12S0,18.6,0,12S5.4,0,12,0S24,5.4,24,12z M12,3c-0.8,0-1.5,0.7-1.5,1.5
	C10.5,5.3,11.2,6,12,6c0.8,0,1.5-0.7,1.5-1.5C13.5,3.7,12.8,3,12,3z M12,19.5c1.7,0,3-1.3,3-3c0-0.8-0.3-1.6-0.8-2.1l3-6.8
	c0.3-0.6,0-1.2-0.5-1.5c-0.6-0.2-1.2,0-1.5,0.6l-3,6.8c0,0-0.1,0-0.1,0c-1.7,0-3,1.4-3,3S10.3,19.5,12,19.5L12,19.5z M6.8,5.2
	c-0.8,0-1.5,0.7-1.5,1.5s0.7,1.5,1.5,1.5s1.5-0.7,1.5-1.5S7.6,5.2,6.8,5.2z M4.5,13.5C5.3,13.5,6,12.8,6,12c0-0.8-0.7-1.5-1.5-1.5
	C3.7,10.5,3,11.2,3,12C3,12.8,3.7,13.5,4.5,13.5z M19.5,10.5c-0.8,0-1.5,0.7-1.5,1.5c0,0.8,0.7,1.5,1.5,1.5S21,12.8,21,12
	C21,11.2,20.3,10.5,19.5,10.5z"/>
</svg>
