<?xml version="1.0" encoding="utf-8"?>
<!-- Generator: Adobe Illustrator 26.1.0, SVG Export Plug-In . SVG Version: 6.00 Build 0)  -->
<svg version="1.1" id="Layer_1" xmlns="http://www.w3.org/2000/svg" xmlns:xlink="http://www.w3.org/1999/xlink" x="0px" y="0px"
	 viewBox="0 0 53 55.7" style="enable-background:new 0 0 53 55.7;" xml:space="preserve">
<style type="text/css">
	.st0{fill:#EC2027;}
</style>
<path id="Path_20" class="st0" d="M12.6,6c0-3.3-2.7-6-6-6s-6,2.7-6,6c0,2.2,1.3,4.3,3.3,5.3v29.1c-2.9,1.5-4.1,5.1-2.6,8
	s5.1,4.1,8,2.6s4.1-5.1,2.6-8c-0.6-1.1-1.5-2.1-2.6-2.6V11.3C11.3,10.3,12.6,8.2,12.6,6"/>
<path id="Path_21" class="st0" d="M52.4,6.1c0-3.3-2.7-6-6-6c-3.3,0-6,2.7-6,6c0,2.3,1.3,4.3,3.3,5.3v6.8c0,1.8-1.5,3.3-3.3,3.3
	h-8.6c-0.6-1.1-1.5-2.1-2.6-2.6v-7.6c2.9-1.5,4.1-5.1,2.6-8c-1.5-2.9-5.1-4.1-8-2.6s-4.1,5.1-2.6,8c0.6,1.1,1.5,2.1,2.6,2.6v7.6
	c-2.9,1.5-4.1,5.1-2.6,8c0.6,1.1,1.5,2.1,2.6,2.6v10.8c-2.9,1.5-4.1,5.1-2.6,8c1.5,2.9,5.1,4.1,8,2.6c2.9-1.5,4.1-5.1,2.6-8
	c-0.6-1.1-1.5-2.1-2.6-2.6V29.5c1.1-0.6,2.1-1.5,2.6-2.6h8.6c4.8,0,8.6-3.9,8.6-8.6v-6.8C51.1,10.4,52.4,8.4,52.4,6.1"/>
</svg>
