<?xml version="1.0" encoding="utf-8"?>
<!-- Generator: Adobe Illustrator 26.1.0, SVG Export Plug-In . SVG Version: 6.00 Build 0)  -->
<svg version="1.1" id="Layer_1" xmlns="http://www.w3.org/2000/svg" xmlns:xlink="http://www.w3.org/1999/xlink" x="0px" y="0px"
	 viewBox="0 0 66 46.2" style="enable-background:new 0 0 66 46.2;" xml:space="preserve">
<style type="text/css">
	.st0{fill:#EC2027;}
</style>
<path id="car-side-solid" class="st0" d="M66,29.7v5c0,1.8-1.5,3.3-3.3,3.3c0,0,0,0,0,0h-3.4c-0.9,5.4-6,9-11.4,8.1
	c-4.2-0.7-7.4-4-8.1-8.1H26.3c-0.9,5.4-6,9-11.4,8.1c-4.2-0.7-7.4-4-8.1-8.1H3.3C1.5,38,0,36.5,0,34.7c0,0,0,0,0,0V23.1
	c0-2.7,1.7-5.2,4.2-6.1L8.5,6.2C10,2.5,13.6,0,17.7,0h18.8c3,0,5.8,1.4,7.7,3.7l10.3,12.9C61.1,17.4,66,23,66,29.7L66,29.7z
	 M17.7,6.6c-1.4,0-2.6,0.8-3.1,2.1l-3.1,7.8h11.6V6.6H17.7z M28.1,16.5h17.9L39,7.8c-0.6-0.8-1.6-1.2-2.6-1.2h-8.4L28.1,16.5z
	 M54.2,38c0.2-0.5,0.3-1.1,0.3-1.7c0.1-2.7-2.1-5-4.9-5c-2.7-0.1-5,2.1-5,4.9c0,0.1,0,0.1,0,0.2c0,0.6,0.1,1.1,0.3,1.7
	c0.9,2.6,3.7,3.9,6.3,3C52.6,40.5,53.7,39.4,54.2,38L54.2,38z M21.2,38c0.2-0.5,0.3-1.1,0.3-1.7c0.1-2.7-2.1-5-4.9-5s-5,2.1-5,4.9
	c0,0.1,0,0.1,0,0.2c0,0.6,0.1,1.1,0.3,1.7c0.9,2.6,3.7,3.9,6.3,3C19.6,40.5,20.7,39.4,21.2,38L21.2,38z"/>
</svg>
