<?xml version="1.0" encoding="utf-8"?>
<!-- Generator: Adobe Illustrator 26.1.0, SVG Export Plug-In . SVG Version: 6.00 Build 0)  -->
<svg version="1.1" id="Layer_1" xmlns="http://www.w3.org/2000/svg" xmlns:xlink="http://www.w3.org/1999/xlink" x="0px" y="0px"
	 viewBox="0 0 61 68.2" style="enable-background:new 0 0 61 68.2;" xml:space="preserve">
<style type="text/css">
	.st0{fill:#EC2027;}
</style>
<path id="f" class="st0" d="M4.1,26.5l3.6-10.4c1.4-4,5.1-6.6,9.3-6.6h18.7c4.2,0,8,2.7,9.4,6.6l3.6,10.4c2.5,1,4.1,3.4,4.1,6.1
	v19.8c0,1.8-1.5,3.3-3.3,3.3h-3.3c-1.8,0-3.3-1.5-3.3-3.3l0,0v-5H10v5c0,1.8-1.5,3.3-3.3,3.3H3.3c-1.8,0-3.3-1.5-3.3-3.3l0,0V32.6
	C0,29.9,1.7,27.5,4.1,26.5 M11.3,26h30.3l-2.7-7.7c-0.5-1.3-1.7-2.2-3.1-2.2H17.1c-1.4,0-2.6,0.9-3.1,2.2C14,18.3,11.3,26,11.3,26z
	 M10,32.6c-1.8,0-3.3,1.5-3.3,3.3s1.5,3.3,3.3,3.3s3.3-1.5,3.3-3.3S11.8,32.6,10,32.6L10,32.6 M43,39.2c1.8,0,3.3-1.5,3.3-3.3
	s-1.5-3.3-3.3-3.3s-3.3,1.5-3.3,3.3S41.2,39.2,43,39.2L43,39.2"/>
<path id="g" class="st0" d="M47.5,5.4L50.4,0l2.9,5.4l5.4,2.9l-5.4,2.9l-2.9,5.4l-2.9-5.4l-5.4-2.9C42.1,8.3,47.5,5.4,47.5,5.4z"/>
<path id="h" class="st0" d="M55.5,18.7l1.4-2.6l1.4,2.6l2.6,1.4l-2.6,1.4L57,24.3l-1.4-2.6l-2.6-1.4L55.5,18.7L55.5,18.7z"/>
</svg>
