<?xml version="1.0" encoding="utf-8"?>
<!-- Generator: Adobe Illustrator 26.1.0, SVG Export Plug-In . SVG Version: 6.00 Build 0)  -->
<svg version="1.1" id="Layer_1" xmlns="http://www.w3.org/2000/svg" xmlns:xlink="http://www.w3.org/1999/xlink" x="0px" y="0px"
	 viewBox="0 0 60 60" style="enable-background:new 0 0 60 60;" xml:space="preserve">
<style type="text/css">
	.st0{fill:#EC2027;}
</style>
<g id="Group_15" transform="translate(851.782 551.107)">
	<path id="Path_30" class="st0" d="M-810.3-551L-810.3-551l-19,19l2.4,2.4c1.1-1.1,3-1.1,4.2,0c0,0,0,0,0,0l4.7,4.7l4.7,4.7
		c1.1,1.1,1.1,3,0,4.2c0,0,0,0,0,0l2.4,2.4l19-19C-794.5-541.5-801.4-548.4-810.3-551 M-816-526.9c-1.8-1.8-1.8-4.8,0-6.6
		c1.8-1.8,4.8-1.8,6.6,0c1.8,1.8,1.8,4.8,0,6.6c0,0,0,0,0,0C-811.3-525-814.2-525-816-526.9"/>
	<path id="Path_31" class="st0" d="M-826.4-511.8l8.6-8.6l-4.8-4.8l-8.6,8.6c-3.2-2.8-7.9-2.6-10.9,0.4l-9.6,9.7l3.4,3.4l2.1-2.1
		l2.6,2.6l-2.1,2.1l3.4,3.4l2.1-2.1l2.6,2.6l-2.1,2.1l3.4,3.4l9.6-9.6C-823.8-503.9-823.6-508.6-826.4-511.8 M-839.9-503
		c-2.4-2.4-2.4-6.3,0-8.7c2.4-2.4,6.3-2.4,8.7,0c2.4,2.4,2.4,6.3,0,8.7c0,0,0,0,0,0C-833.6-500.6-837.5-500.6-839.9-503"/>
</g>
</svg>
