<?xml version="1.0" encoding="utf-8"?>
<!-- Generator: Adobe Illustrator 26.1.0, SVG Export Plug-In . SVG Version: 6.00 Build 0)  -->
<svg version="1.1" id="Layer_1" xmlns="http://www.w3.org/2000/svg" xmlns:xlink="http://www.w3.org/1999/xlink" x="0px" y="0px"
	 viewBox="0 0 50 47.5" style="enable-background:new 0 0 50 47.5;" xml:space="preserve">
<style type="text/css">
	.st0{fill:#EC2027;}
</style>
<path id="Path_22" class="st0" d="M28.2,0c-4.3,0-8.5,1.8-11.5,4.9l-14,14.7c-2.5,2.7-3.4,6.5-2.3,10l4.3,13.7
	c0.8,2.5,3.2,4.3,5.8,4.3h33.4c3.4,0,6.1-2.7,6.1-6.1V0H28.2z M43.8,29.3h-6.7c-0.8,0-1.5-0.7-1.5-1.5c0-0.8,0.7-1.5,1.5-1.5
	c0,0,0,0,0,0h6.7c0.8,0,1.5,0.7,1.5,1.5C45.3,28.6,44.7,29.3,43.8,29.3C43.8,29.3,43.8,29.3,43.8,29.3 M45.3,21.6H6.9L18.1,9.8
	c3-3.2,7.2-5,11.5-5h15.8L45.3,21.6z"/>
</svg>
